<svg width="222" height="37" viewBox="0 0 222 37" fill="none" xmlns="http://www.w3.org/2000/svg">
<path d="M45.328 16V4.8H50.176C51.1787 4.8 52.0427 4.96533 52.768 5.296C53.4933 5.616 54.0533 6.08 54.448 6.688C54.8427 7.296 55.04 8.02133 55.04 8.864C55.04 9.696 54.8427 10.416 54.448 11.024C54.0533 11.632 53.4933 12.1013 52.768 12.432C52.0427 12.752 51.1787 12.912 50.176 12.912H46.768L47.92 11.744V16H45.328ZM47.92 12.032L46.768 10.8H50.032C50.832 10.8 51.4293 10.6293 51.824 10.288C52.2187 9.94667 52.416 9.472 52.416 8.864C52.416 8.24533 52.2187 7.76533 51.824 7.424C51.4293 7.08267 50.832 6.912 50.032 6.912H46.768L47.92 5.68V12.032ZM61.9164 16V14.32L61.7564 13.952V10.944C61.7564 10.4107 61.591 9.99467 61.2604 9.696C60.9404 9.39733 60.4444 9.248 59.7724 9.248C59.3137 9.248 58.8604 9.32267 58.4124 9.472C57.975 9.61067 57.6017 9.80267 57.2924 10.048L56.3964 8.304C56.8657 7.97333 57.431 7.71733 58.0924 7.536C58.7537 7.35467 59.4257 7.264 60.1084 7.264C61.4204 7.264 62.439 7.57333 63.1644 8.192C63.8897 8.81067 64.2524 9.776 64.2524 11.088V16H61.9164ZM59.2924 16.128C58.6204 16.128 58.0444 16.016 57.5644 15.792C57.0844 15.5573 56.7164 15.2427 56.4604 14.848C56.2044 14.4533 56.0764 14.0107 56.0764 13.52C56.0764 13.008 56.199 12.56 56.4444 12.176C56.7004 11.792 57.1004 11.4933 57.6444 11.28C58.1884 11.056 58.8977 10.944 59.7724 10.944H62.0604V12.4H60.0444C59.4577 12.4 59.0524 12.496 58.8284 12.688C58.615 12.88 58.5084 13.12 58.5084 13.408C58.5084 13.728 58.631 13.984 58.8764 14.176C59.1324 14.3573 59.479 14.448 59.9164 14.448C60.3324 14.448 60.7057 14.352 61.0364 14.16C61.367 13.9573 61.607 13.664 61.7564 13.28L62.1404 14.432C61.959 14.9867 61.6284 15.408 61.1484 15.696C60.6684 15.984 60.0497 16.128 59.2924 16.128ZM66.5114 16V7.392H69.0074V16H66.5114ZM67.7594 6.192C67.3007 6.192 66.9274 6.05867 66.6394 5.792C66.3514 5.52533 66.2074 5.19467 66.2074 4.8C66.2074 4.40533 66.3514 4.07467 66.6394 3.808C66.9274 3.54133 67.3007 3.408 67.7594 3.408C68.218 3.408 68.5914 3.536 68.8794 3.792C69.1674 4.03733 69.3114 4.35733 69.3114 4.752C69.3114 5.168 69.1674 5.51467 68.8794 5.792C68.602 6.05867 68.2287 6.192 67.7594 6.192ZM76.5559 7.264C77.2385 7.264 77.8465 7.40267 78.3799 7.68C78.9239 7.94667 79.3505 8.36267 79.6599 8.928C79.9692 9.48267 80.1239 10.1973 80.1239 11.072V16H77.6279V11.456C77.6279 10.7627 77.4732 10.2507 77.1639 9.92C76.8652 9.58933 76.4385 9.424 75.8839 9.424C75.4892 9.424 75.1319 9.50933 74.8119 9.68C74.5025 9.84 74.2572 10.0907 74.0759 10.432C73.9052 10.7733 73.8199 11.2107 73.8199 11.744V16H71.3239V7.392H73.7079V9.776L73.2599 9.056C73.5692 8.48 74.0119 8.03733 74.5879 7.728C75.1639 7.41867 75.8199 7.264 76.5559 7.264ZM86.7209 16.128C85.7395 16.128 84.8755 15.936 84.1289 15.552C83.3929 15.168 82.8222 14.6453 82.4169 13.984C82.0115 13.312 81.8089 12.5493 81.8089 11.696C81.8089 10.832 82.0062 10.0693 82.4009 9.408C82.8062 8.736 83.3555 8.21333 84.0489 7.84C84.7422 7.456 85.5262 7.264 86.4009 7.264C87.2435 7.264 88.0009 7.44533 88.6729 7.808C89.3555 8.16 89.8942 8.672 90.2889 9.344C90.6835 10.0053 90.8809 10.8 90.8809 11.728C90.8809 11.824 90.8755 11.936 90.8649 12.064C90.8542 12.1813 90.8435 12.2933 90.8329 12.4H83.8409V10.944H89.5209L88.5609 11.376C88.5609 10.928 88.4702 10.5387 88.2889 10.208C88.1075 9.87733 87.8569 9.62133 87.5369 9.44C87.2169 9.248 86.8435 9.152 86.4169 9.152C85.9902 9.152 85.6115 9.248 85.2809 9.44C84.9609 9.62133 84.7102 9.88267 84.5289 10.224C84.3475 10.5547 84.2569 10.9493 84.2569 11.408V11.792C84.2569 12.2613 84.3582 12.6773 84.5609 13.04C84.7742 13.392 85.0675 13.664 85.4409 13.856C85.8249 14.0373 86.2729 14.128 86.7849 14.128C87.2435 14.128 87.6435 14.0587 87.9849 13.92C88.3369 13.7813 88.6569 13.5733 88.9449 13.296L90.2729 14.736C89.8782 15.184 89.3822 15.5307 88.7849 15.776C88.1875 16.0107 87.4995 16.128 86.7209 16.128ZM92.5426 16V4.128H95.0386V16H92.5426ZM43.856 36L48.848 24.8H51.408L56.416 36H53.696L49.6 26.112H50.624L46.512 36H43.856ZM46.352 33.6L47.04 31.632H52.8L53.504 33.6H46.352ZM61.0199 36.128C60.2092 36.128 59.4785 35.9467 58.8279 35.584C58.1772 35.2107 57.6599 34.6933 57.2759 34.032C56.9025 33.3707 56.7159 32.592 56.7159 31.696C56.7159 30.7893 56.9025 30.0053 57.2759 29.344C57.6599 28.6827 58.1772 28.1707 58.8279 27.808C59.4785 27.4453 60.2092 27.264 61.0199 27.264C61.7452 27.264 62.3799 27.424 62.9239 27.744C63.4679 28.064 63.8892 28.5493 64.1879 29.2C64.4865 29.8507 64.6359 30.6827 64.6359 31.696C64.6359 32.6987 64.4919 33.5307 64.2039 34.192C63.9159 34.8427 63.4999 35.328 62.9559 35.648C62.4225 35.968 61.7772 36.128 61.0199 36.128ZM61.4519 34.08C61.8572 34.08 62.2252 33.984 62.5559 33.792C62.8865 33.6 63.1479 33.328 63.3399 32.976C63.5425 32.6133 63.6439 32.1867 63.6439 31.696C63.6439 31.1947 63.5425 30.768 63.3399 30.416C63.1479 30.064 62.8865 29.792 62.5559 29.6C62.2252 29.408 61.8572 29.312 61.4519 29.312C61.0359 29.312 60.6625 29.408 60.3319 29.6C60.0012 29.792 59.7345 30.064 59.5319 30.416C59.3399 30.768 59.2439 31.1947 59.2439 31.696C59.2439 32.1867 59.3399 32.6133 59.5319 32.976C59.7345 33.328 60.0012 33.6 60.3319 33.792C60.6625 33.984 61.0359 34.08 61.4519 34.08ZM63.7079 36V34.24L63.7559 31.68L63.5959 29.136V24.128H66.0919V36H63.7079ZM79.426 27.264C80.1087 27.264 80.7113 27.4027 81.234 27.68C81.7673 27.9467 82.1833 28.3627 82.482 28.928C82.7913 29.4827 82.946 30.1973 82.946 31.072V36H80.45V31.456C80.45 30.7627 80.306 30.2507 80.018 29.92C79.73 29.5893 79.3247 29.424 78.802 29.424C78.4393 29.424 78.114 29.5093 77.826 29.68C77.538 29.84 77.314 30.0853 77.154 30.416C76.994 30.7467 76.914 31.168 76.914 31.68V36H74.418V31.456C74.418 30.7627 74.274 30.2507 73.986 29.92C73.7087 29.5893 73.3087 29.424 72.786 29.424C72.4233 29.424 72.098 29.5093 71.81 29.68C71.522 29.84 71.298 30.0853 71.138 30.416C70.978 30.7467 70.898 31.168 70.898 31.68V36H68.402V27.392H70.786V29.744L70.338 29.056C70.6367 28.4693 71.058 28.0267 71.602 27.728C72.1567 27.4187 72.786 27.264 73.49 27.264C74.2793 27.264 74.9673 27.4667 75.554 27.872C76.1513 28.2667 76.546 28.8747 76.738 29.696L75.858 29.456C76.146 28.784 76.6047 28.2507 77.234 27.856C77.874 27.4613 78.6047 27.264 79.426 27.264ZM85.1833 36V27.392H87.6793V36H85.1833ZM86.4313 26.192C85.9726 26.192 85.5993 26.0587 85.3113 25.792C85.0233 25.5253 84.8793 25.1947 84.8793 24.8C84.8793 24.4053 85.0233 24.0747 85.3113 23.808C85.5993 23.5413 85.9726 23.408 86.4313 23.408C86.8899 23.408 87.2633 23.536 87.5513 23.792C87.8393 24.0373 87.9833 24.3573 87.9833 24.752C87.9833 25.168 87.8393 25.5147 87.5513 25.792C87.2739 26.0587 86.9006 26.192 86.4313 26.192ZM95.2278 27.264C95.9104 27.264 96.5184 27.4027 97.0518 27.68C97.5958 27.9467 98.0224 28.3627 98.3318 28.928C98.6411 29.4827 98.7958 30.1973 98.7958 31.072V36H96.2998V31.456C96.2998 30.7627 96.1451 30.2507 95.8358 29.92C95.5371 29.5893 95.1104 29.424 94.5558 29.424C94.1611 29.424 93.8038 29.5093 93.4838 29.68C93.1744 29.84 92.9291 30.0907 92.7478 30.432C92.5771 30.7733 92.4918 31.2107 92.4918 31.744V36H89.9958V27.392H92.3798V29.776L91.9318 29.056C92.2411 28.48 92.6838 28.0373 93.2598 27.728C93.8358 27.4187 94.4918 27.264 95.2278 27.264ZM101.058 36V27.392H103.554V36H101.058ZM102.306 26.192C101.848 26.192 101.474 26.0587 101.186 25.792C100.898 25.5253 100.754 25.1947 100.754 24.8C100.754 24.4053 100.898 24.0747 101.186 23.808C101.474 23.5413 101.848 23.408 102.306 23.408C102.765 23.408 103.138 23.536 103.426 23.792C103.714 24.0373 103.858 24.3573 103.858 24.752C103.858 25.168 103.714 25.5147 103.426 25.792C103.149 26.0587 102.776 26.192 102.306 26.192ZM108.767 36.128C108.031 36.128 107.321 36.0427 106.639 35.872C105.967 35.6907 105.433 35.4667 105.039 35.2L105.871 33.408C106.265 33.6533 106.729 33.856 107.263 34.016C107.807 34.1653 108.34 34.24 108.863 34.24C109.439 34.24 109.844 34.1707 110.079 34.032C110.324 33.8933 110.447 33.7013 110.447 33.456C110.447 33.2533 110.351 33.104 110.159 33.008C109.977 32.9013 109.732 32.8213 109.423 32.768C109.113 32.7147 108.772 32.6613 108.399 32.608C108.036 32.5547 107.668 32.4853 107.295 32.4C106.921 32.304 106.58 32.1653 106.271 31.984C105.961 31.8027 105.711 31.5573 105.519 31.248C105.337 30.9387 105.247 30.5387 105.247 30.048C105.247 29.504 105.401 29.024 105.711 28.608C106.031 28.192 106.489 27.8667 107.087 27.632C107.684 27.3867 108.399 27.264 109.231 27.264C109.817 27.264 110.415 27.328 111.023 27.456C111.631 27.584 112.137 27.7707 112.543 28.016L111.711 29.792C111.295 29.5467 110.873 29.3813 110.447 29.296C110.031 29.2 109.625 29.152 109.231 29.152C108.676 29.152 108.271 29.2267 108.015 29.376C107.759 29.5253 107.631 29.7173 107.631 29.952C107.631 30.1653 107.721 30.3253 107.903 30.432C108.095 30.5387 108.345 30.624 108.655 30.688C108.964 30.752 109.3 30.8107 109.663 30.864C110.036 30.9067 110.409 30.976 110.783 31.072C111.156 31.168 111.492 31.3067 111.791 31.488C112.1 31.6587 112.351 31.8987 112.543 32.208C112.735 32.5067 112.831 32.9013 112.831 33.392C112.831 33.9253 112.671 34.4 112.351 34.816C112.031 35.2213 111.567 35.5413 110.959 35.776C110.361 36.0107 109.631 36.128 108.767 36.128ZM117.891 36.128C116.877 36.128 116.088 35.872 115.523 35.36C114.957 34.8373 114.675 34.064 114.675 33.04V25.488H117.171V33.008C117.171 33.3707 117.267 33.6533 117.459 33.856C117.651 34.048 117.912 34.144 118.243 34.144C118.637 34.144 118.973 34.0373 119.251 33.824L119.923 35.584C119.667 35.7653 119.357 35.904 118.995 36C118.643 36.0853 118.275 36.128 117.891 36.128ZM113.347 29.504V27.584H119.315V29.504H113.347ZM121.324 36V27.392H123.708V29.824L123.372 29.12C123.628 28.512 124.039 28.0533 124.604 27.744C125.169 27.424 125.857 27.264 126.668 27.264V29.568C126.561 29.5573 126.465 29.552 126.38 29.552C126.295 29.5413 126.204 29.536 126.108 29.536C125.425 29.536 124.871 29.7333 124.444 30.128C124.028 30.512 123.82 31.1147 123.82 31.936V36H121.324ZM132.87 36V34.32L132.71 33.952V30.944C132.71 30.4107 132.544 29.9947 132.214 29.696C131.894 29.3973 131.398 29.248 130.726 29.248C130.267 29.248 129.814 29.3227 129.366 29.472C128.928 29.6107 128.555 29.8027 128.246 30.048L127.35 28.304C127.819 27.9733 128.384 27.7173 129.046 27.536C129.707 27.3547 130.379 27.264 131.062 27.264C132.374 27.264 133.392 27.5733 134.118 28.192C134.843 28.8107 135.206 29.776 135.206 31.088V36H132.87ZM130.246 36.128C129.574 36.128 128.998 36.016 128.518 35.792C128.038 35.5573 127.67 35.2427 127.414 34.848C127.158 34.4533 127.03 34.0107 127.03 33.52C127.03 33.008 127.152 32.56 127.398 32.176C127.654 31.792 128.054 31.4933 128.598 31.28C129.142 31.056 129.851 30.944 130.726 30.944H133.014V32.4H130.998C130.411 32.4 130.006 32.496 129.782 32.688C129.568 32.88 129.462 33.12 129.462 33.408C129.462 33.728 129.584 33.984 129.83 34.176C130.086 34.3573 130.432 34.448 130.87 34.448C131.286 34.448 131.659 34.352 131.99 34.16C132.32 33.9573 132.56 33.664 132.71 33.28L133.094 34.432C132.912 34.9867 132.582 35.408 132.102 35.696C131.622 35.984 131.003 36.128 130.246 36.128ZM140.985 36.128C139.971 36.128 139.182 35.872 138.617 35.36C138.051 34.8373 137.769 34.064 137.769 33.04V25.488H140.265V33.008C140.265 33.3707 140.361 33.6533 140.553 33.856C140.745 34.048 141.006 34.144 141.337 34.144C141.731 34.144 142.067 34.0373 142.345 33.824L143.017 35.584C142.761 35.7653 142.451 35.904 142.089 36C141.737 36.0853 141.369 36.128 140.985 36.128ZM136.441 29.504V27.584H142.409V29.504H136.441ZM144.418 36V27.392H146.914V36H144.418ZM145.666 26.192C145.207 26.192 144.834 26.0587 144.546 25.792C144.258 25.5253 144.114 25.1947 144.114 24.8C144.114 24.4053 144.258 24.0747 144.546 23.808C144.834 23.5413 145.207 23.408 145.666 23.408C146.124 23.408 146.498 23.536 146.786 23.792C147.074 24.0373 147.218 24.3573 147.218 24.752C147.218 25.168 147.074 25.5147 146.786 25.792C146.508 26.0587 146.135 26.192 145.666 26.192ZM151.566 36L147.95 27.392H150.526L153.534 34.8H152.254L155.374 27.392H157.774L154.142 36H151.566ZM162.654 36.128C161.737 36.128 160.921 35.936 160.206 35.552C159.502 35.168 158.942 34.6453 158.526 33.984C158.121 33.312 157.918 32.5493 157.918 31.696C157.918 30.832 158.121 30.0693 158.526 29.408C158.942 28.736 159.502 28.2133 160.206 27.84C160.921 27.456 161.737 27.264 162.654 27.264C163.561 27.264 164.372 27.456 165.086 27.84C165.801 28.2133 166.361 28.7307 166.766 29.392C167.172 30.0533 167.374 30.8213 167.374 31.696C167.374 32.5493 167.172 33.312 166.766 33.984C166.361 34.6453 165.801 35.168 165.086 35.552C164.372 35.936 163.561 36.128 162.654 36.128ZM162.654 34.08C163.07 34.08 163.444 33.984 163.774 33.792C164.105 33.6 164.366 33.328 164.558 32.976C164.75 32.6133 164.846 32.1867 164.846 31.696C164.846 31.1947 164.75 30.768 164.558 30.416C164.366 30.064 164.105 29.792 163.774 29.6C163.444 29.408 163.07 29.312 162.654 29.312C162.238 29.312 161.865 29.408 161.534 29.6C161.204 29.792 160.937 30.064 160.734 30.416C160.542 30.768 160.446 31.1947 160.446 31.696C160.446 32.1867 160.542 32.6133 160.734 32.976C160.937 33.328 161.204 33.6 161.534 33.792C161.865 33.984 162.238 34.08 162.654 34.08Z" fill="white"/>
<path fill-rule="evenodd" clip-rule="evenodd" d="M4.32394 29.8904C4.6901 30.2315 5.22327 30.3227 5.68107 30.1204C6.13926 29.9221 6.43558 29.4698 6.43558 28.97C6.43717 25.8876 6.43718 21.3137 6.43718 21.3137C6.43718 20.4052 7.17386 19.6713 8.08072 19.6713C8.98758 19.6713 9.72425 20.4052 9.72425 21.3137V33.9327C10.5371 34.385 11.3503 34.7658 12.164 35.0712V15.7321C12.164 14.8276 12.9002 14.0898 13.8071 14.0898C14.7144 14.0898 15.4506 14.8276 15.4506 15.7321V35.9004C16.2639 35.9996 17.0771 36.0273 17.8903 35.9718V24.761C17.8903 23.8525 18.6266 23.1147 19.5335 23.1147C20.4407 23.1147 21.177 23.8525 21.177 24.761V35.3212C21.9899 35.0474 22.8031 34.6984 23.6167 34.262V19.9173C23.6167 19.0128 24.353 18.2749 25.2603 18.2749C26.1671 18.2749 26.9034 19.0128 26.9034 19.9173V29.1882C26.9034 29.696 27.2093 30.1522 27.679 30.3505C28.1487 30.5449 28.6898 30.4378 29.05 30.0768C29.8053 29.3112 30.5626 28.4741 31.3195 27.5538C34.0147 24.8602 34.0147 20.4846 31.3195 17.787L21.5535 8.0202C18.8583 5.3266 14.4823 5.3266 11.7875 8.0202L2.02109 17.787C-0.673698 20.4846 -0.673698 24.8602 2.02109 27.5538C2.78871 28.3908 3.55633 29.1723 4.32394 29.8904Z" fill="white"/>
</svg>
