<svg width="23" height="19" viewBox="0 0 23 19" fill="none" xmlns="http://www.w3.org/2000/svg">
<path fill-rule="evenodd" clip-rule="evenodd" d="M8.30488 11.2944C8.30488 11.5551 8.10004 11.7599 7.83933 11.7599C7.57862 11.7599 7.37377 11.5458 7.37377 11.2944V2.50469L12.048 0V14.9443C12.048 15.2051 11.8431 15.4099 11.5824 15.4099C11.3217 15.4099 11.1168 15.2051 11.1168 14.9443V1.55496L8.30488 3.06336V11.2944ZM2.69958 14.8233C2.69958 15.084 2.49473 15.2889 2.23402 15.2889C1.97331 15.2889 1.76847 15.0747 1.77778 14.8233V9.39492L6.44265 6.89023V12.4397C6.44265 12.7004 6.2378 12.9052 5.97709 12.9052C5.71638 12.9052 5.51153 12.7004 5.51153 12.4397V8.44518L2.69958 9.95359V14.8233ZM13.4446 14.8047C13.7053 14.8047 13.9102 14.5998 13.9102 14.3391V5.46563L16.7221 3.95722V11.9927C16.7221 12.2534 16.927 12.4583 17.1877 12.4583C17.4484 12.4583 17.6532 12.2534 17.6532 11.9927V2.40227L12.9883 4.90696V14.3391C12.979 14.5998 13.1932 14.8047 13.4446 14.8047ZM22.3739 10.894C22.5415 10.894 22.6905 10.9871 22.7743 11.1268C22.8581 11.2758 22.8581 11.4527 22.7836 11.5737L21.1728 14.3577C21.089 14.4974 20.94 14.5905 20.7724 14.5905C20.6048 14.5905 20.4558 14.4974 20.372 14.3577L19.8041 13.3708L19.6178 13.4825L17.2621 14.9257C17.0713 15.0468 16.878 15.1655 16.6848 15.2842C16.4916 15.4029 16.2984 15.5216 16.1075 15.6427C15.9725 15.7311 15.8352 15.8173 15.6979 15.9034C15.5605 15.9895 15.4232 16.0756 15.2882 16.1641C14.5619 16.6297 13.9287 17.0393 13.3421 17.4397C13.0163 17.6539 12.6997 17.8773 12.3831 18.1008L11.8151 18.5105L7.6065 14.4043L0.716272 18.7898C0.632472 18.8364 0.548671 18.8643 0.464871 18.8643C0.315893 18.8643 0.166916 18.7898 0.0738044 18.6502C-0.0658624 18.436 -0.000684522 18.1474 0.213471 18.0077L7.73686 13.2218L11.9082 17.3001C12.0619 17.1976 12.2132 17.0929 12.3645 16.9881C12.5158 16.8834 12.6671 16.7786 12.8207 16.6762C13.4166 16.2665 14.0591 15.8475 14.7854 15.382C14.9524 15.2726 15.1229 15.1667 15.2948 15.06C15.4009 14.9942 15.5075 14.9281 15.6141 14.8605C15.8096 14.7395 16.0027 14.6208 16.1959 14.5021C16.3891 14.3834 16.5824 14.2647 16.778 14.1436L19.3385 12.5886L18.7612 11.5923C18.6774 11.4434 18.6774 11.2665 18.7612 11.1268C18.845 10.9871 18.994 10.894 19.1616 10.894H22.3739ZM19.9624 11.8251L20.7631 13.2125L21.5639 11.8251H19.9624Z" fill="white"/>
</svg>
